<?xml version="1.0" encoding="iso-8859-1"?>
<!-- Generator: Adobe Illustrator 18.0.0, SVG Export Plug-In . SVG Version: 6.00 Build 0)  -->
<!DOCTYPE svg PUBLIC "-//W3C//DTD SVG 1.1//EN" "http://www.w3.org/Graphics/SVG/1.1/DTD/svg11.dtd">
<svg version="1.1" id="Capa_1" xmlns="http://www.w3.org/2000/svg" xmlns:xlink="http://www.w3.org/1999/xlink" x="0px" y="0px"
	 viewBox="0 0 372.169 372.169" style="enable-background:new 0 0 372.169 372.169;" xml:space="preserve">
<g>
	<g>
		<path d="M360.593,160.677c17.283-32.705,15.181-67.197-6.087-99.76c-15.692-24.026-36.183-38.384-37.047-38.983
			c-2.736-1.895-6.394-1.763-8.984,0.328c-25.176,20.324-52.901,54.175-78.069,95.318c-23.148,37.84-40.81,76.851-47.247,104.354
			c-4.487,19.172-14.848,28.491-31.671,28.491h-0.003c-12.951-0.001-24.83-5.619-24.934-5.669c-1.803-0.873-3.88-0.99-5.767-0.322
			c-0.774,0.273-5.59,1.975-12.756,4.518c0.491-3.27,0.313-6.621-0.652-9.901c-3.161-10.731-13.878-17.941-26.666-17.941
			c-3.325,0-6.665,0.488-9.929,1.449c-7.526,2.217-13.948,6.754-18.083,12.775c-4.399,6.408-5.759,14.032-3.73,20.917
			c1.302,4.422,3.901,8.232,7.386,11.2c-15.601,5.653-29.654,10.837-36.155,13.474C6.245,286.585,0,299.756,0,310.298
			c0,17.793,16.319,26.59,26.235,29.071c4.178,1.385,39.254,12.204,114.697,12.202c9.487,0,19.355-0.175,29.329-0.52
			c57.947-2.005,66.26-31.777,75.061-63.298c1.303-4.666,2.649-9.49,4.182-14.369c7.639-24.337,32.03-51.635,47.137-66.859v128.651
			c0,4.143,3.358,7.5,7.5,7.5h28.637c2.015,0,3.945-0.811,5.356-2.25c1.41-1.439,2.183-3.385,2.143-5.399
			c-0.016-0.751-1.484-75.447-0.008-105.41C341.644,201.77,359.371,163.296,360.593,160.677z M325.286,228.877
			c-1.233,25.055-0.485,78.76-0.146,98.799h-13.499V188.98c0-2.946-1.725-5.619-4.409-6.834c-2.684-1.212-5.831-0.744-8.044,1.202
			c-2.095,1.843-51.453,45.585-63.996,85.543c-1.603,5.108-2.982,10.049-4.316,14.827c-8.83,31.626-14.16,50.716-61.133,52.342
			c-9.801,0.339-19.494,0.511-28.81,0.511c-75.893,0.002-109.81-11.382-110.128-11.491c-0.24-0.084-0.485-0.155-0.733-0.215
			C29.921,324.829,15,320.969,15,310.298c0-0.452,0.123-11.127,10.837-15.473c8.423-3.417,30.517-11.456,51.796-19.098
			c1.524,0.619,5.211,2.111,5.583,2.272c5.838,2.528,36.617,15.168,68.337,15.168c11.939,0,24.017-1.792,34.941-6.588
			c16.89-7.415,28.651-20.845,34.958-39.918c11.769-35.59,31.535-76.354,54.23-111.838c21.984-34.372,43.867-59.388,62.316-71.384
			c1.343,1.822,2.666,3.714,3.949,5.68c18.396,28.165,20.181,56.66,5.307,84.692c-0.054,0.101-0.104,0.202-0.152,0.304
			C346.275,155.86,326.852,197.178,325.286,228.877z M123.009,259.557c5.139,2.071,16.227,5.867,28.475,5.868c0,0,0.002,0,0.004,0
			c23.793,0,40.228-14.231,46.276-40.073C209.748,174.148,263.2,81.09,313.388,37.703c3.646,2.966,9.137,7.776,15.013,14.144
			c-19.992,13.594-42.866,39.734-65.354,74.896c-23.34,36.492-43.69,78.485-55.836,115.211c-4.98,15.063-13.72,25.163-26.716,30.879
			c-26.531,11.668-63.445,1.52-81.387-4.786C109.873,264.21,118.729,261.072,123.009,259.557z M65.064,243.824
			c2.157-3.143,5.786-5.648,9.955-6.877c1.887-0.556,3.801-0.838,5.69-0.838c6.078,0,11.013,2.886,12.277,7.179
			c1.708,5.804-3.633,12.705-11.662,15.07c-1.886,0.555-3.8,0.836-5.688,0.836c-6.081,0-11.016-2.885-12.28-7.182
			C62.334,248.542,63.987,245.392,65.064,243.824z"/>
	</g>
</g>
<g>
</g>
<g>
</g>
<g>
</g>
<g>
</g>
<g>
</g>
<g>
</g>
<g>
</g>
<g>
</g>
<g>
</g>
<g>
</g>
<g>
</g>
<g>
</g>
<g>
</g>
<g>
</g>
<g>
</g>
</svg>
