<svg xmlns="http://www.w3.org/2000/svg" viewBox="0 0 47 46.98"><defs><style>.cls-1{fill:#e6e9e1}</style></defs><title>building</title><g id="Layer_2" data-name="Layer 2"><g id="Capa_1" data-name="Capa 1"><path class="cls-1" d="M44.85 42.71H2.14a2.14 2.14 0 1 0 0 4.27h42.7a2.14 2.14 0 0 0 0-4.27zM4.81 37.15a2.14 2.14 0 1 0 0 4.28h37.37a2.14 2.14 0 0 0 0-4.28h-.54V17.93h.54a1.05 1.05 0 0 0 1.06-1.06 1.07 1.07 0 0 0-1.06-1.07H4.81a1.07 1.07 0 1 0 0 2.13h.53v19.22zm32.56-19.22v19.22H31V17.93zm-10.68 0v19.22h-6.4V17.93zm-17.08 0H16v19.22H9.61zm-7.47-4.05h42.73a2.14 2.14 0 0 0 .69-4.16L24.37.19a2.14 2.14 0 0 0-1.75 0L1.26 9.8a2.13 2.13 0 0 0 .88 4.08z" id="Layer_1-2" data-name="Layer 1"/></g></g></svg>