<svg xmlns="http://www.w3.org/2000/svg" viewBox="0 0 110.73 119.49"><defs><style>.cls-1{fill:#fff}</style></defs><title>cake</title><g id="Layer_2" data-name="Layer 2"><path class="cls-1" d="M100.67 102.54V63.33h-6.89v-35.5h-30c3.88-2.89 8-6.28 9.32-8.56A14.25 14.25 0 0 0 75.32 11C75 5 70.64 0 65.26 0s-9.45 4.41-9.45 4.41S51.89 0 46.36 0 36.58 5 36.3 11a14.23 14.23 0 0 0 2.19 8.31c1.34 2.27 5.46 5.67 9.35 8.56H17.48v35.5H10.6v39.21H0v16.95h110.73v-16.99zM30.73 53.69a13.25 13.25 0 0 0 5.08 1 12.73 12.73 0 0 0 10-4.85 12.67 12.67 0 0 0 19.94 0 12.39 12.39 0 0 0 14.78 3.82v9.14h-49.8zm56.69 48.85H23.84v-11a16.07 16.07 0 0 0 7.85 2.21 14.82 14.82 0 0 0 12.06-6.21 14.76 14.76 0 0 0 24.06 0 14.57 14.57 0 0 0 11.93 6.21 14 14 0 0 0 7.68-2.21z" id="Capa_1" data-name="Capa 1"/></g></svg>