<svg xmlns="http://www.w3.org/2000/svg" viewBox="0 0 41.56 42.51"><defs><style>.cls-1{fill:#e6e9e1}</style></defs><title>date</title><g id="Layer_2" data-name="Layer 2"><g id="Capa_1" data-name="Capa 1"><path class="cls-1" d="M15 23.45a1 1 0 0 0-1-1h-3.32a1 1 0 0 0-1 1v3.37a1 1 0 0 0 1 1h3.37a1 1 0 0 0 1-1v-3.37zm8.43 0a1 1 0 0 0-1-1H19.1a1 1 0 0 0-1 1v3.37a1 1 0 0 0 1 1h3.37a1 1 0 0 0 1-1zm8.41 0a1 1 0 0 0-1-1h-3.33a1 1 0 0 0-1 1v3.37a1 1 0 0 0 1 1h3.37a1 1 0 0 0 1-1zM15 31.87a1 1 0 0 0-1-1h-3.32a1 1 0 0 0-1 1v3.36a1 1 0 0 0 1 1h3.37a1 1 0 0 0 1-1v-3.36zm8.43 0a1 1 0 0 0-1-1H19.1a1 1 0 0 0-1 1v3.36a1 1 0 0 0 1 1h3.37a1 1 0 0 0 1-1zm8.41 0a1 1 0 0 0-1-1h-3.33a1 1 0 0 0-1 1v3.36a1 1 0 0 0 1 1h3.37a1 1 0 0 0 1-1v-3.36z"/><path class="cls-1" d="M37.86 4.73v5.14a4.19 4.19 0 0 1-4.2 4.2H31a4.22 4.22 0 0 1-4.23-4.2V4.71h-12v5.16a4.22 4.22 0 0 1-4.24 4.2H7.91a4.2 4.2 0 0 1-4.21-4.2V4.73A3.83 3.83 0 0 0 0 8.54v30.13a3.83 3.83 0 0 0 3.81 3.84h33.94a3.83 3.83 0 0 0 3.81-3.84V8.54a3.82 3.82 0 0 0-3.7-3.81zM36.63 36.8A1.64 1.64 0 0 1 35 38.44H6.51a1.64 1.64 0 0 1-1.65-1.64V21.23a1.65 1.65 0 0 1 1.65-1.65H35a1.65 1.65 0 0 1 1.65 1.65V36.8z"/><path class="cls-1" d="M7.9 11.32h2.63A1.45 1.45 0 0 0 12 9.87V1.44A1.45 1.45 0 0 0 10.53 0H7.9a1.44 1.44 0 0 0-1.44 1.44v8.43a1.44 1.44 0 0 0 1.44 1.45zm23.1 0h2.62A1.45 1.45 0 0 0 35 9.87V1.44A1.45 1.45 0 0 0 33.59 0H31a1.45 1.45 0 0 0-1.45 1.44v8.43A1.45 1.45 0 0 0 31 11.32z"/></g></g></svg>