<svg xmlns="http://www.w3.org/2000/svg" viewBox="0 0 255.7 65.06"><defs><style>.cls-1{fill:#ae6835}.cls-2{fill:#898989}.cls-3{fill:#8e8e8e}</style></defs><title>logo</title><g id="Layer_2" data-name="Layer 2"><g id="blog"><g id="Group_10_copy" data-name="Group 10 copy"><path class="cls-1" d="M12.61 34.87a19.87 19.87 0 0 1-3 .8 15.45 15.45 0 0 1-2.82.27 8 8 0 0 1-2.7-.44A6.61 6.61 0 0 1 2 34.26a5.67 5.67 0 0 1-1.44-1.9A5.76 5.76 0 0 1 0 29.9a3.17 3.17 0 0 1 .49-1.68 1.62 1.62 0 0 1 1.51-.8 1.56 1.56 0 0 1 1.14.36 1.25 1.25 0 0 1 .37.9A2 2 0 0 1 3 29.9a2 2 0 0 1-1.63.58 3.94 3.94 0 0 0 1.53 2.88 5.65 5.65 0 0 0 3.77 1.17 19 19 0 0 0 5.46-1 16.53 16.53 0 0 1-.93-2.82 14.11 14.11 0 0 1-.29-3 26 26 0 0 1 .34-4.07 14 14 0 0 1 1.24-4 8.79 8.79 0 0 1 2.44-3.05 6.17 6.17 0 0 1 4-1.21c1.89 0 3.2.57 3.95 1.7A9.38 9.38 0 0 1 24 22.25a9.75 9.75 0 0 1-1 4.39A12.75 12.75 0 0 1 20.62 30a16.27 16.27 0 0 1-3.17 2.48c-1.15.68-2.22 1.27-3.23 1.75a5.86 5.86 0 0 0 .8 1.34 5.77 5.77 0 0 0 1.24 1.17 6.63 6.63 0 0 0 1.75.85 7.16 7.16 0 0 0 2.32.35 5.41 5.41 0 0 0 3.9-2 22 22 0 0 0 3.48-5 52.57 52.57 0 0 0 2.92-6.77c.88-2.46 1.66-4.87 2.34-7.2s1.24-4.45 1.68-6.33.74-3.25.9-4.09q-1.61-.88-3.24-1.83c-1.09-.65-2.17-1.23-3.24-1.72a22 22 0 0 0-3.24-1.3 11.34 11.34 0 0 0-3.23-.48 9.74 9.74 0 0 0-2.25.27 6 6 0 0 0-2.08.9A5.15 5.15 0 0 0 16.72 4a4.67 4.67 0 0 0-.6 2.46 7.13 7.13 0 0 0 .53 2.8 6.8 6.8 0 0 0 1.45 2.14 6.41 6.41 0 0 0 2.18 1.39 7.52 7.52 0 0 0 2.7.48 1.47 1.47 0 0 1-.38-1.07A2 2 0 0 1 23 11a1.54 1.54 0 0 1 1.27-.56 1.26 1.26 0 0 1 1.07.46 1.87 1.87 0 0 1 .37 1.1 2.7 2.7 0 0 1-.66 1.7 2.33 2.33 0 0 1-2 .83 8.81 8.81 0 0 1-3.5-.65 6.94 6.94 0 0 1-2.51-1.8 7.68 7.68 0 0 1-1.51-2.62 9.55 9.55 0 0 1-.51-3.13 5.48 5.48 0 0 1 .66-2.7 6.28 6.28 0 0 1 1.7-2A8.17 8.17 0 0 1 19.75.44 8 8 0 0 1 22.3 0a13.7 13.7 0 0 1 3.34.44 22.88 22.88 0 0 1 3.46 1.19c1.15.51 2.29 1.07 3.43 1.71s2.22 1.25 3.26 1.87a5.16 5.16 0 0 1 .85-1.75A7.56 7.56 0 0 1 38.06 2a7.64 7.64 0 0 1 1.7-1 4.36 4.36 0 0 1 1.73-.42 3.88 3.88 0 0 1 2.34.62 2.69 2.69 0 0 1 .83 2.28 3.06 3.06 0 0 1-.37 1.35 4.13 4.13 0 0 1-1.1 1.3 6.14 6.14 0 0 1-1.82 1 7.61 7.61 0 0 1-2.56.39q-.29 2.19-1 5.4c-.49 2.15-1.1 4.4-1.85 6.77a68.85 68.85 0 0 1-2.68 7.09 38.62 38.62 0 0 1-3.51 6.35 18.82 18.82 0 0 1-4.31 4.58 8.34 8.34 0 0 1-5.08 1.75 10.9 10.9 0 0 1-2.54-.26 7.08 7.08 0 0 1-3.72-2.24 13.85 13.85 0 0 1-1.51-2.09zm.78-2a15.5 15.5 0 0 0 2.61-1.7 15.89 15.89 0 0 0 2.48-2.44 12.91 12.91 0 0 0 1.86-3 8.81 8.81 0 0 0 .73-3.55 6.76 6.76 0 0 0-1-4.14A2.76 2.76 0 0 0 18 16.75a3.74 3.74 0 0 0-2.75 1.1 8.16 8.16 0 0 0-1.76 2.68 14.75 14.75 0 0 0-.92 3.31 19.48 19.48 0 0 0-.27 2.94 21.59 21.59 0 0 0 .22 3.14 10.18 10.18 0 0 0 .87 2.95zM38.81 6.33a8.88 8.88 0 0 0 1.75-.17 4.88 4.88 0 0 0 1.49-.54 3.1 3.1 0 0 0 1.05-.9 2 2 0 0 0 .39-1.21 2.13 2.13 0 0 0-.42-1.27 1.19 1.19 0 0 0-1-.58 2.22 2.22 0 0 0-1.38.41 3.22 3.22 0 0 0-.93 1.07 6.25 6.25 0 0 0-.58 1.49c-.18.55-.27 1.12-.37 1.7zm8.81 25.47a7 7 0 0 1-1.14 1.68 15.21 15.21 0 0 1-1.63 1.58A8.31 8.31 0 0 1 43 36.25a4 4 0 0 1-1.73.47 4.36 4.36 0 0 1-3.48-1.24 4.68 4.68 0 0 1-1-3.1 10.74 10.74 0 0 1 .95-4.16A16.28 16.28 0 0 1 40.27 24 16 16 0 0 1 44 20.79a8 8 0 0 1 4.31-1.31 2.07 2.07 0 0 1 1.82.8 3.16 3.16 0 0 1 .56 1.88 4.72 4.72 0 0 1-.19 1.34 5.08 5.08 0 0 1-.54 1.21 2.81 2.81 0 0 1-.8.9 1.64 1.64 0 0 1-1 .35 1.45 1.45 0 0 1-1.16-.39 1.23 1.23 0 0 1-.39-.88 1.73 1.73 0 0 1 .42-1.17 1.31 1.31 0 0 1 1-.49 1 1 0 0 1 .51.17.83.83 0 0 0 .42.17c.22 0 .37-.14.44-.43a4.2 4.2 0 0 0 .09-.83 2 2 0 0 0-.31-1.05 1 1 0 0 0-.86-.51 2.78 2.78 0 0 0-1.63.71A9.86 9.86 0 0 0 45 23.11a23.59 23.59 0 0 0-1.73 2.58 25.58 25.58 0 0 0-1.49 2.89 23.79 23.79 0 0 0-1 2.83 8.61 8.61 0 0 0-.39 2.29 1.66 1.66 0 0 0 .39 1.19 1.22 1.22 0 0 0 .92.42 2.74 2.74 0 0 0 1.56-.59 10.78 10.78 0 0 0 1.68-1.51c.57-.62 1.14-1.29 1.71-2s1.09-1.44 1.58-2.14.94-1.32 1.36-1.88a12.44 12.44 0 0 1 1-1.21 2 2 0 0 1 .9-.47 4.85 4.85 0 0 1 1.29-.17 3.33 3.33 0 0 1 1.38.27 1 1 0 0 1 .61.95 1.85 1.85 0 0 1-.24.88c-.39.74-.89 1.65-1.51 2.72s-1.21 2.19-1.78 3.34a36.42 36.42 0 0 0-1.46 3.36 8.27 8.27 0 0 0-.61 2.7c0 1 .47 1.51 1.42 1.51a3.48 3.48 0 0 0 2-.8 13.12 13.12 0 0 0 2.14-2.1 30.51 30.51 0 0 0 2.12-2.89c.7-1.07 1.36-2.14 2-3.19s1.19-2.06 1.71-3 .94-1.75 1.26-2.36a.6.6 0 0 1 .54-.39.36.36 0 0 1 .32.17.6.6 0 0 1 .12.36 4.59 4.59 0 0 1-.63 2c-.43.81-.86 1.64-1.32 2.48q-1 1.95-2.29 4.05a29.41 29.41 0 0 1-2.85 3.84A16.39 16.39 0 0 1 52.52 42a6 6 0 0 1-3.34 1.12 3.28 3.28 0 0 1-2.75-1 4.07 4.07 0 0 1-.75-2.51 9.68 9.68 0 0 1 .24-2.07c.16-.73.35-1.45.56-2.17s.42-1.38.63-2 .39-1.12.51-1.57z"/><path class="cls-1" d="M80.35 27.9q-1.51 1.91-3.09 4.1a40.65 40.65 0 0 1-3.39 4.14A18.7 18.7 0 0 1 70 39.35a8.72 8.72 0 0 1-4.58 1.26 4.9 4.9 0 0 1-4.24-1.8 7.36 7.36 0 0 1-1.31-4.43A17 17 0 0 1 60.8 29a21.78 21.78 0 0 1 2.6-5.33 16.38 16.38 0 0 1 3.9-4.09A8.08 8.08 0 0 1 72.17 18a2.83 2.83 0 0 1 2.12.88 3 3 0 0 1 .85 2.12 1.37 1.37 0 0 1-.49 1.19 1.64 1.64 0 0 1-1 .37 1.51 1.51 0 0 1-1.12-.44 1.53 1.53 0 0 1-.41-1.12 2.16 2.16 0 0 1 .24-.9.76.76 0 0 1 .68-.51l-.43-.27a.83.83 0 0 0-.44-.12 3 3 0 0 0-1.88.87 13.81 13.81 0 0 0-2 2.32 26.28 26.28 0 0 0-2 3.23 43.1 43.1 0 0 0-1.65 3.68 29.25 29.25 0 0 0-1.17 3.63 12.84 12.84 0 0 0-.44 3 3.52 3.52 0 0 0 .68 2.26 2.84 2.84 0 0 0 2.34.85 6.23 6.23 0 0 0 3.46-1.21 22 22 0 0 0 3.5-3 38.23 38.23 0 0 0 3.17-3.7c1-1.3 1.8-2.44 2.48-3.41l.73-1.07a.87.87 0 0 1 .78-.39c.42 0 .64.19.64.58a1.92 1.92 0 0 1-.46 1.06z"/><path class="cls-1" d="M90.14 36.77a1.55 1.55 0 0 1 1.43.58 2.63 2.63 0 0 1 .37 1.43 7.11 7.11 0 0 1-.1 1.17 12.75 12.75 0 0 1-.24 1.26c-.1.4-.18.79-.25 1.15a5.37 5.37 0 0 0-.09.83c0 .29.08.44.24.44a2.82 2.82 0 0 0 1.63-.87 17.9 17.9 0 0 0 2.14-2.32c.77-.95 1.55-2 2.37-3.24s1.56-2.41 2.26-3.65 1.32-2.42 1.88-3.55a31 31 0 0 0 1.22-2.92c.13-.49.36-.73.68-.73s.49.22.49.68a2.45 2.45 0 0 1-.1.53 15.26 15.26 0 0 1-1 2.34c-.5 1.07-1.11 2.26-1.82 3.58s-1.42 2.67-2.25 4.07a42.61 42.61 0 0 1-2.7 3.82 19.47 19.47 0 0 1-2.73 2.82 4 4 0 0 1-2.41 1.1 3.06 3.06 0 0 1-2.53-.83 3.26 3.26 0 0 1-.63-2 10.12 10.12 0 0 1 .26-2.29 9.25 9.25 0 0 0 .27-2.05 1.17 1.17 0 0 0-.32-.95 1.6 1.6 0 0 0-.68-.36l-.68-.2a.42.42 0 0 1-.32-.44c0-.09.1-.18.3-.26a2.68 2.68 0 0 1 1-.13 2.9 2.9 0 0 0 1.48-1 12.49 12.49 0 0 0 1.64-2 14.35 14.35 0 0 0 1.31-2.56 6.72 6.72 0 0 0 .54-2.43 2.3 2.3 0 0 0-.49-1.51 2.07 2.07 0 0 0-1.66-.59 3 3 0 0 0-1.72.73 13.54 13.54 0 0 0-2 1.88 30.06 30.06 0 0 0-2 2.56c-.67.94-1.27 1.87-1.83 2.79s-1 1.8-1.41 2.61a19.08 19.08 0 0 0-.83 2 1.43 1.43 0 0 1-.85.92 3.19 3.19 0 0 1-1.34.3 1.46 1.46 0 0 1-1-.3 1.11 1.11 0 0 1-.36-.92 65.37 65.37 0 0 1 1-6.53q.74-3.75 1.8-7.69t2.44-7.79a54.79 54.79 0 0 1 2.96-6.95 23.54 23.54 0 0 1 3.24-4.89 4.66 4.66 0 0 1 3.33-1.88 1.58 1.58 0 0 1 1.43.63 3.06 3.06 0 0 1 .43 1.7 10.57 10.57 0 0 1-.49 2.87 32.48 32.48 0 0 1-1.29 3.5q-.81 1.85-1.83 3.72c-.68 1.24-1.39 2.43-2.12 3.57s-1.45 2.14-2.16 3a17.79 17.79 0 0 1-2 2.12 13.42 13.42 0 0 0-.83 2.36q-.39 1.37-.78 2.88c-.26 1-.51 2-.75 3s-.5 2-.76 2.85c.59-.84 1.23-1.87 1.93-3.07a30.36 30.36 0 0 1 2.33-3.46A16.53 16.53 0 0 1 88 25.42a5.12 5.12 0 0 1 3.24-1.17c1.85 0 3.16.39 3.92 1.17a3.94 3.94 0 0 1 1.14 2.84 7 7 0 0 1-.51 2.54 11.49 11.49 0 0 1-3.33 4.65 7.17 7.17 0 0 1-2.32 1.32zm-5.26-15.59a27 27 0 0 0 2.89-4.06q1.44-2.42 2.56-4.8a45.51 45.51 0 0 0 1.83-4.41 10.19 10.19 0 0 0 .7-2.91c0-.36-.11-.54-.34-.54s-.79.55-1.41 1.66-1.29 2.48-2 4.14-1.47 3.46-2.22 5.43-1.43 3.77-2.01 5.49z"/><path class="cls-2" d="M124.26 39.45a16.69 16.69 0 0 1-.43 3.74 10.46 10.46 0 0 1-1.37 3.26 7.14 7.14 0 0 1-2.46 2.31 7.47 7.47 0 0 1-3.72.86q-3.41 0-4.85-1.29A4.33 4.33 0 0 1 110 45a11.26 11.26 0 0 1 1-4.25 32.89 32.89 0 0 1 2.41-4.75 44.49 44.49 0 0 1 3.31-4.63q1.83-2.23 3.51-3.91a36 36 0 0 0-2.16-3.51l-.29.53-1.2 2a32.8 32.8 0 0 1-1.87 2.76 15.89 15.89 0 0 1-2.24 2.42 3.46 3.46 0 0 1-2.23 1 3.9 3.9 0 0 1-2.9-.89 3.18 3.18 0 0 1-.84-2.28 8.85 8.85 0 0 1 .77-3.36 28.3 28.3 0 0 1 1.84-3.7 36.39 36.39 0 0 1 2.26-3.36 24.5 24.5 0 0 1 2-2.35v-.05a12.56 12.56 0 0 1-.67-2.16 11 11 0 0 1-.24-2.35 6.39 6.39 0 0 1 .36-1.85 5.36 5.36 0 0 1 .86-1.58 4.12 4.12 0 0 1 1.37-1.11 4.38 4.38 0 0 1 2-.4 3.27 3.27 0 0 1 2.23.6 2 2 0 0 1 .65 1.56 6 6 0 0 1-.6 2.44 19 19 0 0 1-1.42 2.62c-.54.85-1.08 1.62-1.61 2.3l-1.12 1.47a19.75 19.75 0 0 0 1.27 2c.46.65 1 1.33 1.51 2 .51-1 1-1.91 1.42-2.74a21.27 21.27 0 0 1 1.24-2.13 6 6 0 0 1 1.2-1.37 2 2 0 0 1 1.28-.48 2.29 2.29 0 0 1 1.15.38 1.48 1.48 0 0 1 .62 1.35 2.32 2.32 0 0 1-.26 1.1.93.93 0 0 1-.89.48.64.64 0 0 1-.58-.22 1 1 0 0 1-.14-.55 1.16 1.16 0 0 1 .31-.79.92.92 0 0 1 .69-.24.72.72 0 0 1 .29 0 .85.85 0 0 0-.32-.72 1.31 1.31 0 0 0-.84-.24 1.62 1.62 0 0 0-1.17.72 12.32 12.32 0 0 0-1.2 1.77q-.6 1.07-1.2 2.28l-1.08 2.23c.41.55.82 1.13 1.22 1.73s.79 1.25 1.18 1.92c.83-.83 1.65-1.71 2.47-2.64a25.49 25.49 0 0 0 2.18-2.83 14.72 14.72 0 0 0 1.54-2.93 8.12 8.12 0 0 0 .58-2.92 4.8 4.8 0 0 0-.56-2.41 6.48 6.48 0 0 0-1.24-1.58 7.39 7.39 0 0 0-1.25-.93c-.37-.21-.55-.35-.55-.41 0-.39.3-.58.91-.58a4.3 4.3 0 0 1 1.51.34 6 6 0 0 1 1.68 1 6.18 6.18 0 0 1 1.37 1.61 4.34 4.34 0 0 1 .57 2.26 11.29 11.29 0 0 1-.79 4.24 18.78 18.78 0 0 1-2 3.75 26.44 26.44 0 0 1-2.66 3.34c-1 1-1.87 1.89-2.73 2.69a27.25 27.25 0 0 1 1.68 4.8 24.79 24.79 0 0 1 .67 5.96zM114.61 19c-.45.61-1 1.41-1.66 2.42s-1.28 2.07-1.87 3.19a35.4 35.4 0 0 0-1.53 3.29 7.31 7.31 0 0 0-.65 2.66 1.61 1.61 0 0 0 .31 1.06 1.24 1.24 0 0 0 1 .39 2.19 2.19 0 0 0 1.27-.51 8.55 8.55 0 0 0 1.52-1.32 16.91 16.91 0 0 0 1.42-1.77c.45-.64.87-1.27 1.27-1.88s.74-1.15 1-1.63a11.6 11.6 0 0 0 .55-1l.34-.68c-.51-.73-1-1.44-1.51-2.11s-1.01-1.41-1.46-2.11zm1.78 29.81a5.19 5.19 0 0 0 2.73-.75 7.41 7.41 0 0 0 2.16-2 9.62 9.62 0 0 0 1.42-2.93 12.34 12.34 0 0 0 .5-3.5 25.91 25.91 0 0 0-.57-5.69 25.37 25.37 0 0 0-1.49-4.58 32.77 32.77 0 0 0-2.59 3 44.85 44.85 0 0 0-3 4.22 34.71 34.71 0 0 0-2.42 4.63 10.8 10.8 0 0 0-1 4.13 3.41 3.41 0 0 0 1 2.5 4.58 4.58 0 0 0 3.26.97zM116.63 8a2.6 2.6 0 0 0-2.16 1.27 6.25 6.25 0 0 0-1.11 3 10.21 10.21 0 0 0 .19 2 13.88 13.88 0 0 0 .53 1.82c.39-.45.79-1 1.23-1.58a21.75 21.75 0 0 0 1.2-1.9 20.24 20.24 0 0 0 .93-1.87 4 4 0 0 0 .39-1.56c0-.84-.4-1.18-1.2-1.18z"/><path class="cls-1" d="M164.4 15.21c-.33-.49-.69-1.06-1.08-1.73a23.38 23.38 0 0 1-1.09-2.12 15.53 15.53 0 0 1-.85-2.36 8.92 8.92 0 0 1-.38-2.42 7.29 7.29 0 0 1 .23-1.58 5.11 5.11 0 0 1 .61-1.54A3.33 3.33 0 0 1 163 2.29a3.24 3.24 0 0 1 1.73-.44 3.44 3.44 0 0 1 3 1.17 4.92 4.92 0 0 1 .8 2.87 13.06 13.06 0 0 1-.17 2.11 22.7 22.7 0 0 1-.99 3.99 12.16 12.16 0 0 1-.54 1.34q1.21 2 2.22 3.9c.66 1.3 1.25 2.51 1.77 3.65.59-.58 1.49-1.51 2.71-2.77s2.58-2.67 4.09-4.22 3.1-3.13 4.79-4.77 3.3-3.13 4.82-4.48a44.85 44.85 0 0 1 4.17-3.31 5.91 5.91 0 0 1 2.85-1.28 1.69 1.69 0 0 1 1.38.49 1.53 1.53 0 0 1 .42 1 1 1 0 0 1-.34.83 17.14 17.14 0 0 0-3.22 3.5 47.55 47.55 0 0 0-3.49 5.6c-1.15 2.12-2.27 4.43-3.36 6.91s-2.05 5-2.9 7.58a68.07 68.07 0 0 0-2 7.57 34.81 34.81 0 0 0-.75 6.84 16.69 16.69 0 0 0 .17 2.53 8.63 8.63 0 0 0 .53 2.05 4 4 0 0 0 .93 1.38 2 2 0 0 0 1.39.52c.61 0 1 .08 1.07.24a1 1 0 0 1 .14.54.84.84 0 0 1-.7.9 5.93 5.93 0 0 1-1.34.17 4.91 4.91 0 0 1-2.63-.66 5 5 0 0 1-1.73-1.85 9.36 9.36 0 0 1-.95-2.85 21.26 21.26 0 0 1-.29-3.6 32.84 32.84 0 0 1 .66-6.19c.44-2.27 1-4.58 1.7-6.94s1.48-4.66 2.34-6.94 1.71-4.35 2.56-6.25 1.63-3.52 2.36-4.85a15.32 15.32 0 0 1 1.8-2.73c-1.29 1.27-2.65 2.58-4.06 3.92l-4.29 4.09a166.01 166.01 0 0 0-8.06 8.26 23.2 23.2 0 0 1 1.27 3.12 11.26 11.26 0 0 1 .58 3.6 10.86 10.86 0 0 1-.29 2.56 6.36 6.36 0 0 1-1 2.19 4.77 4.77 0 0 1-1.75 1.51 6.06 6.06 0 0 1-2.75.56 2.8 2.8 0 0 1-2.34-.83 3.29 3.29 0 0 1-.63-2 9.1 9.1 0 0 1 .41-2.58 22.2 22.2 0 0 1 1-2.65 24.35 24.35 0 0 1 1.27-2.44 21.46 21.46 0 0 1 1.26-1.92l-3.31-6.67c-.55 1-1.16 2.28-1.83 3.82s-1.4 3.17-2.21 4.9-1.71 3.44-2.68 5.18a28.05 28.05 0 0 1-3.24 4.68 16 16 0 0 1-3.92 3.36 8.88 8.88 0 0 1-4.67 1.29 7.21 7.21 0 0 1-4.68-1.46 8.53 8.53 0 0 1-2.63-3.66 9.66 9.66 0 0 1-2.09.71 10.38 10.38 0 0 1-2.34.27 7.28 7.28 0 0 1-1.7-.22 5.16 5.16 0 0 1-1.59-.68 4 4 0 0 1-1.16-1.15 2.77 2.77 0 0 1-.47-1.6 3 3 0 0 1 .08-.64 2 2 0 0 1 .24-.63 1.38 1.38 0 0 1 .51-.51 1.69 1.69 0 0 1 .93-.22 1.17 1.17 0 0 1 1 .56 2.18 2.18 0 0 1 .37 1.24 2 2 0 0 1-.34.8 1.12 1.12 0 0 1-1 .56 2.29 2.29 0 0 0 1.59.93 11.52 11.52 0 0 0 2 .19 5.86 5.86 0 0 0 2-.34 13.21 13.21 0 0 0 1.47-.58 29.7 29.7 0 0 1-.78-6.92 16.8 16.8 0 0 1 .61-4.57 12 12 0 0 1 1.82-3.88 9.28 9.28 0 0 1 3.07-2.7 8.71 8.71 0 0 1 4.28-1c2 0 3.32.39 4.12 1.17a4.08 4.08 0 0 1 1.19 3 8.93 8.93 0 0 1-.51 2.83 18.44 18.44 0 0 1-1.36 3.05 24.07 24.07 0 0 1-2 3 33.22 33.22 0 0 1-2.33 2.66 20.43 20.43 0 0 1-2.44 2.14 10.75 10.75 0 0 1-2.28 1.34 7.21 7.21 0 0 0 1.77 3.32 4.65 4.65 0 0 0 3.49 1.27 6.23 6.23 0 0 0 3.57-1.19 16.23 16.23 0 0 0 3.32-3.15 34.66 34.66 0 0 0 3-4.41c1-1.64 1.86-3.32 2.68-5s1.59-3.36 2.29-4.95 1.35-2.99 1.94-4.16zM142 32a6 6 0 0 0 1.75-.92 19.27 19.27 0 0 0 2.14-1.83 24.19 24.19 0 0 0 2.11-2.42 27.08 27.08 0 0 0 2-2.83 16.37 16.37 0 0 0 1.41-2.85 7.36 7.36 0 0 0 .54-2.63 2.86 2.86 0 0 0-.78-2.16 4 4 0 0 0-2.82-.76 4.21 4.21 0 0 0-3 1.22 9.11 9.11 0 0 0-2.07 3.09 17.24 17.24 0 0 0-1.17 4.19 28 28 0 0 0-.37 4.5c0 .62 0 1.21.08 1.78s.06 1.14.18 1.62zm23.66-28.74a1.46 1.46 0 0 0-1.34.66 3.06 3.06 0 0 0-.41 1.63 7.46 7.46 0 0 0 .19 1.61 19.063 19.063 0 0 0 1.15 3.46A9.14 9.14 0 0 0 166 12a22.17 22.17 0 0 0 .83-2.73 13 13 0 0 0 .39-3.07 5.28 5.28 0 0 0-.37-2.09 1.24 1.24 0 0 0-1.19-.85zm3.65 21.28a11.33 11.33 0 0 0-1 1.56 22 22 0 0 0-1.07 2.12 16.41 16.41 0 0 0-.86 2.34 8.32 8.32 0 0 0-.34 2.21 1.49 1.49 0 0 0 1.71 1.66 2.15 2.15 0 0 0 2-1.15 7.42 7.42 0 0 0 .64-3.48 13.94 13.94 0 0 0-.27-2.85 10.51 10.51 0 0 0-.81-2.41z"/><path class="cls-1" d="M199.12 31.8a7.41 7.41 0 0 1-1.12 1.68 15.21 15.21 0 0 1-1.63 1.58 8.31 8.31 0 0 1-1.83 1.19 4 4 0 0 1-1.72.47 4.36 4.36 0 0 1-3.49-1.24 4.68 4.68 0 0 1-1-3.1 10.74 10.74 0 0 1 1-4.16 16.28 16.28 0 0 1 2.43-4.22 16 16 0 0 1 3.68-3.24 8 8 0 0 1 4.31-1.31 2.1 2.1 0 0 1 1.83.8 3.23 3.23 0 0 1 .56 1.88 4.73 4.73 0 0 1-.2 1.34 5.08 5.08 0 0 1-.54 1.21 2.81 2.81 0 0 1-.8.9 1.64 1.64 0 0 1-1 .35 1.45 1.45 0 0 1-1.07-.39 1.23 1.23 0 0 1-.39-.88 1.73 1.73 0 0 1 .42-1.17 1.31 1.31 0 0 1 1-.49.94.94 0 0 1 .51.17.83.83 0 0 0 .42.17c.22 0 .37-.14.44-.43a4.2 4.2 0 0 0 .09-.83 2 2 0 0 0-.31-1.05 1 1 0 0 0-.85-.51 2.78 2.78 0 0 0-1.64.71 9.86 9.86 0 0 0-1.77 1.85 25.12 25.12 0 0 0-1.73 2.58 25.58 25.58 0 0 0-1.49 2.89 23.79 23.79 0 0 0-1 2.83 8.61 8.61 0 0 0-.39 2.29 1.66 1.66 0 0 0 .39 1.19 1.22 1.22 0 0 0 .92.42 2.74 2.74 0 0 0 1.56-.59 10.78 10.78 0 0 0 1.68-1.51c.57-.62 1.14-1.29 1.71-2s1.09-1.44 1.58-2.14.94-1.32 1.36-1.88a14 14 0 0 1 1-1.21 2 2 0 0 1 .9-.47 4.85 4.85 0 0 1 1.29-.17 3.41 3.41 0 0 1 1.39.27 1 1 0 0 1 .6.95 1.85 1.85 0 0 1-.24.88c-.39.74-.89 1.65-1.51 2.72s-1.21 2.19-1.78 3.34-1.05 2.27-1.46 3.36a8.27 8.27 0 0 0-.61 2.7c0 1 .47 1.51 1.42 1.51a3.46 3.46 0 0 0 2-.8 12.74 12.74 0 0 0 2.14-2.1 30.51 30.51 0 0 0 2.12-2.89c.7-1.07 1.36-2.14 2-3.19s1.19-2.06 1.71-3l1.27-2.36a.57.57 0 0 1 .53-.39.36.36 0 0 1 .32.17.6.6 0 0 1 .12.36 4.59 4.59 0 0 1-.63 2c-.43.81-.86 1.64-1.32 2.48q-1 1.95-2.29 4.05a29.41 29.41 0 0 1-2.85 3.84A16.39 16.39 0 0 1 204 42a6 6 0 0 1-3.34 1.12 3.28 3.28 0 0 1-2.75-1 4.07 4.07 0 0 1-.75-2.51 9.68 9.68 0 0 1 .24-2.07c.16-.73.35-1.45.56-2.17s.42-1.38.63-2 .41-1.12.53-1.57z"/><path class="cls-1" d="M220.49 26.78a9.85 9.85 0 0 1-3.94.83 8.88 8.88 0 0 1-2.22-.27 4.73 4.73 0 0 1-1.82-.87 4.24 4.24 0 0 1-1.24-1.53 4.87 4.87 0 0 1-.47-2.23 7.5 7.5 0 0 1 1.27-4.53 4.19 4.19 0 0 1 3.6-1.72 1.6 1.6 0 0 1 1.51.73 3.53 3.53 0 0 1 .44 1.84 9.36 9.36 0 0 1-.17 1.67 17.31 17.31 0 0 1-.41 1.72 10.2 10.2 0 0 1-.61 1.55 7.45 7.45 0 0 1-.71 1.16 2.92 2.92 0 0 0 1.17.8 4.25 4.25 0 0 0 1 .12 2.91 2.91 0 0 0 1.05-.19l1-.42c.35-.14.74-.28 1.17-.41a4.76 4.76 0 0 1 1.41-.19 2.22 2.22 0 0 1 1.22.34 1.44 1.44 0 0 1 .53 1.31 6.6 6.6 0 0 1-.36 1.88c-.25.76-.55 1.59-.91 2.48s-.75 1.82-1.19 2.77-.83 1.87-1.19 2.73-.66 1.65-.9 2.36a5.55 5.55 0 0 0-.37 1.71c0 .55.21.83.64.83a4.24 4.24 0 0 0 2.8-1.44 25.66 25.66 0 0 0 3-3.63q1.53-2.19 3.06-4.77t2.95-4.87a.57.57 0 0 1 .58-.34.62.62 0 0 1 .42.15.47.47 0 0 1 .17.38.69.69 0 0 1-.15.44c-.36.52-.8 1.27-1.34 2.24s-1.13 2-1.8 3.19-1.4 2.33-2.22 3.53a31.31 31.31 0 0 1-2.46 3.29 14.11 14.11 0 0 1-2.72 2.43 5.07 5.07 0 0 1-2.88.95 2.89 2.89 0 0 1-2.55-1 4.54 4.54 0 0 1-.71-2.63 13 13 0 0 1 .46-3.17 31 31 0 0 1 1.09-3.43c.44-1.14.91-2.22 1.42-3.24s.96-1.87 1.38-2.55zm-5.64-2.63a5.24 5.24 0 0 0 .46-.8 12.24 12.24 0 0 0 .51-1.24 12.1 12.1 0 0 0 .41-1.44 5.77 5.77 0 0 0 .17-1.34 1.71 1.71 0 0 0-.29-1 1 1 0 0 0-.92-.42c-.36 0-.64.3-.83.9a6.75 6.75 0 0 0-.29 2.12 6.2 6.2 0 0 0 .24 1.68 13.88 13.88 0 0 0 .54 1.54z"/><path class="cls-1" d="M242 25.71a.71.71 0 0 1 .44-.53 1.77 1.77 0 0 1 .73-.15 2.69 2.69 0 0 1 1.53.51 1.7 1.7 0 0 1 .76 1.49 3.07 3.07 0 0 1-.1.63c-.39 1.27-.73 2.41-1 3.43s-.54 2-.8 3S243 36 242.7 37s-.73 2.05-1.22 3.22a6.41 6.41 0 0 0 3.87-1.54 24 24 0 0 0 3.83-3.68 34.71 34.71 0 0 0 3.16-4.4 22.07 22.07 0 0 0 1.9-3.78c.2-.52.49-.78.88-.78s.58.18.58.54a5.25 5.25 0 0 1-.58 1.7 27.66 27.66 0 0 1-1.61 2.92c-.68 1.11-1.49 2.28-2.41 3.51a24.4 24.4 0 0 1-3 3.36 18.63 18.63 0 0 1-3.41 2.54 7.19 7.19 0 0 1-3.63 1c-.35 1-.82 2.23-1.41 3.76s-1.29 3.16-2.12 4.9a52.52 52.52 0 0 1-2.87 5.25A28.09 28.09 0 0 1 231 60.3a17.67 17.67 0 0 1-4.55 3.44 11.58 11.58 0 0 1-5.48 1.32 16.08 16.08 0 0 1-4-.39 5.54 5.54 0 0 1-2.22-1.05 3 3 0 0 1-1-1.58 8.27 8.27 0 0 1-.22-1.95 9.24 9.24 0 0 1 1.1-4.09 21.54 21.54 0 0 1 2.92-4.33 33.84 33.84 0 0 1 4.23-4.12 38.37 38.37 0 0 1 5-3.48 29.76 29.76 0 0 1 5.31-2.41 16 16 0 0 1 5.07-.9c.45-1.24.89-2.47 1.31-3.7s.94-2.6 1.56-4.09c-.52.61-1 1.29-1.58 2a16.23 16.23 0 0 1-1.76 2 10 10 0 0 1-2 1.56 4.84 4.84 0 0 1-2.46.63 2.2 2.2 0 0 1-2.07-1.05 5.15 5.15 0 0 1-.61-2.65 13.07 13.07 0 0 1 .27-2.53c.18-.91.41-1.83.68-2.75s.58-1.82.9-2.68a24.41 24.41 0 0 1 1-2.27 1.64 1.64 0 0 1 1-.82 3.51 3.51 0 0 1 1.38-.3 2.24 2.24 0 0 1 1.2.32 1.08 1.08 0 0 1 .51 1 2.05 2.05 0 0 1-.2.83c-.32.77-.7 1.71-1.12 2.79s-.83 2.16-1.21 3.23-.72 2-1 2.93a7.92 7.92 0 0 0-.39 1.92c0 .26.1.39.29.39a4 4 0 0 0 2.54-1.2 17.63 17.63 0 0 0 2.65-3 32.17 32.17 0 0 0 2.36-3.85 25.29 25.29 0 0 0 1.59-3.76zm-5.31 16.46a13.93 13.93 0 0 0-4.77.9 28.43 28.43 0 0 0-4.9 2.34 33.81 33.81 0 0 0-4.6 3.31 37.78 37.78 0 0 0-3.87 3.8 19.91 19.91 0 0 0-2.65 3.77 7.3 7.3 0 0 0-1 3.31 6.54 6.54 0 0 0 .17 1.49 2.34 2.34 0 0 0 .81 1.24 4.58 4.58 0 0 0 1.8.85 12.12 12.12 0 0 0 3.16.32 7.76 7.76 0 0 0 4.29-1.29 15.44 15.44 0 0 0 3.65-3.34 28.47 28.47 0 0 0 3-4.52q1.32-2.49 2.31-4.87t1.66-4.36c.45-1.32.76-2.3.96-2.95z"/><path class="cls-3" d="M1.26 56.43v8.08h-1v-8.08zm3.02 8.08v-8.08h1.14L8 60.52a22.28 22.28 0 0 1 1.45 2.63c-.09-1.07-.12-2.06-.12-3.32v-3.4h1v8.08H9.29l-2.56-4.1a23 23 0 0 1-1.51-2.7c.06 1 .08 2 .08 3.33v3.45zm9.1-7.97a14.3 14.3 0 0 1 2.21-.17 4.65 4.65 0 0 1 3.28 1A3.71 3.71 0 0 1 20 60.28a4.25 4.25 0 0 1-1.17 3.14 4.94 4.94 0 0 1-3.57 1.17 16.58 16.58 0 0 1-1.89-.1zm1 7.15a7.63 7.63 0 0 0 1.05.06 3.11 3.11 0 0 0 3.45-3.43c0-1.91-1.07-3.12-3.28-3.12a5.89 5.89 0 0 0-1.22.11zm9.23-7.26v4.79c0 1.81.8 2.57 1.88 2.57s2-.79 2-2.57v-4.79h1.06v4.71c0 2.49-1.31 3.51-3.06 3.51s-2.9-1-2.9-3.46v-4.76zm7.78 6.81a3.65 3.65 0 0 0 1.87.53c1.07 0 1.69-.56 1.69-1.38s-.43-1.19-1.52-1.61c-1.32-.46-2.14-1.15-2.14-2.29s1-2.19 2.62-2.19a3.72 3.72 0 0 1 1.78.39l-.29.86a3.11 3.11 0 0 0-1.53-.39c-1.1 0-1.52.66-1.52 1.21 0 .76.49 1.13 1.6 1.56 1.37.53 2.07 1.19 2.07 2.38s-.93 2.32-2.83 2.32a4.21 4.21 0 0 1-2.07-.51zm8.79-5.92h-2.46v-.89h6v.89h-2.48v7.19h-1.06zm5.63-.78a10.66 10.66 0 0 1 2-.17 3.28 3.28 0 0 1 2.34.66 2 2 0 0 1 .64 1.53 2.13 2.13 0 0 1-1.52 2.07 2 2 0 0 1 1.18 1.63 13 13 0 0 0 .63 2.22H50a10.51 10.51 0 0 1-.54-1.93c-.24-1.11-.67-1.53-1.62-1.57h-1v3.5h-1zm1 3.68h1.07c1.12 0 1.83-.61 1.83-1.53s-.76-1.5-1.86-1.52a4.18 4.18 0 0 0-1 .1zm7.7-3.79v8.08h-1v-8.08zM58.84 62L58 64.51h-1.08l2.75-8.08h1.26l2.76 8.08h-1.12L61.71 62zm2.65-.81l-.79-2.33c-.18-.53-.3-1-.42-1.48-.12.48-.25 1-.41 1.47l-.79 2.34zm4.59-4.76h1v7.21h3.46v.87h-4.5zM83.5 61c-.06-1.12-.13-2.48-.12-3.49-.27 1-.61 2-1 3.07l-1.48 3.89h-.8l-1.3-3.85c-.39-1.14-.71-2.19-.94-3.15 0 1-.09 2.37-.16 3.58l-.21 3.46h-1l.51-8.08h1.34l1.38 3.91c.33 1 .61 1.88.81 2.72.2-.81.49-1.7.85-2.72l1.44-3.91h1.33l.5 8.08h-1zm8.22-.28h-3.14v2.92h3.5v.87h-4.55v-8.08h4.37v.88h-3.32v2.55h3.14zm4.65-3.4h-2.46v-.89h6v.89h-2.49v7.19h-1zM102.4 62l-.84 2.54h-1.08l2.75-8.08h1.26l2.76 8.08h-1.12l-.86-2.54zm2.65-.81l-.79-2.33c-.18-.53-.3-1-.42-1.48-.12.48-.25 1-.41 1.47l-.79 2.34zm4.59-4.76h1v7.21h3.46v.87h-4.5zm6.86 0h1v7.21h3.5v.87h-4.5zm7.91 0v8.08h-1v-8.08zm8.67 7.82a5.2 5.2 0 0 1-2.13.38 3.78 3.78 0 0 1-4-4.09 4 4 0 0 1 4.23-4.24 4.2 4.2 0 0 1 1.91.36l-.25.85a3.8 3.8 0 0 0-1.63-.34 3 3 0 0 0-3.15 3.34 2.94 2.94 0 0 0 3.1 3.25 4.1 4.1 0 0 0 1.71-.34zM137 62l-.84 2.54H135l2.75-8.08H139l2.75 8.08h-1.11l-.82-2.54zm2.65-.81l-.79-2.33c-.18-.53-.3-1-.42-1.48-.12.48-.25 1-.4 1.47l-.79 2.34zm13.93 3.06a5.25 5.25 0 0 1-2.14.38 3.78 3.78 0 0 1-4-4.09 4 4 0 0 1 4.22-4.24 4.26 4.26 0 0 1 1.92.36l-.25.85a3.84 3.84 0 0 0-1.63-.34 3 3 0 0 0-3.16 3.34 2.94 2.94 0 0 0 3.11 3.25 4 4 0 0 0 1.7-.34zm9.17-3.86c0 2.78-1.7 4.26-3.76 4.26s-3.63-1.66-3.63-4.11 1.59-4.24 3.75-4.24 3.64 1.7 3.64 4.09zm-6.28.13c0 1.73.94 3.27 2.58 3.27s2.59-1.52 2.59-3.35c0-1.61-.84-3.29-2.58-3.29s-2.59 1.59-2.59 3.37zm8.84 3.99v-8.08h1.13l2.6 4.09a23.83 23.83 0 0 1 1.45 2.63c-.1-1.07-.12-2.06-.12-3.32v-3.4h1v8.08h-1.05l-2.57-4.1a26.34 26.34 0 0 1-1.51-2.7c.06 1 .08 2 .08 3.33v3.45zm14.74-.26a5.2 5.2 0 0 1-2.13.38 3.78 3.78 0 0 1-4-4.09 4 4 0 0 1 4.22-4.24 4.22 4.22 0 0 1 1.92.36l-.25.85a3.84 3.84 0 0 0-1.63-.34 3 3 0 0 0-3.18 3.34 2.94 2.94 0 0 0 3.11 3.25 4 4 0 0 0 1.7-.34zm6.7-3.53h-3.15v2.92h3.51v.87h-4.55v-8.08h4.37v.88h-3.33v2.55h3.15zm2.92-4.19a11.33 11.33 0 0 1 2-.16 3.31 3.31 0 0 1 2.26.67 2.16 2.16 0 0 1 .71 1.69 2.38 2.38 0 0 1-.62 1.73 3.34 3.34 0 0 1-2.47.89 3.61 3.61 0 0 1-.84-.07v3.23h-1zm1 3.89a3.43 3.43 0 0 0 .86.09c1.26 0 2-.61 2-1.73s-.76-1.58-1.91-1.58a4.32 4.32 0 0 0-1 .08zm8.11-3.1h-2.45v-.89h6v.89h-2.47v7.19h-1.06z"/></g></g></g></svg>