<?xml version="1.0" encoding="utf-8"?>
<!-- Generator: Adobe Illustrator 21.1.0, SVG Export Plug-In . SVG Version: 6.00 Build 0)  -->
<svg version="1.1" id="Layer_1" xmlns="http://www.w3.org/2000/svg" xmlns:xlink="http://www.w3.org/1999/xlink" x="0px" y="0px"
	 viewBox="0 0 64 64" style="enable-background:new 0 0 64 64;" xml:space="preserve">
<style type="text/css">
	.st0{fill:#AE6835;}
</style>
<g id="Wedding-rings">
	<circle class="st0" cx="48.8" cy="26.2" r="1.5"/>
	<circle class="st0" cx="15.1" cy="26.2" r="1.5"/>
	<circle class="st0" cx="51.3" cy="16.9" r="1.5"/>
	<circle class="st0" cx="12.6" cy="16.9" r="1.5"/>
	<circle class="st0" cx="47" cy="6.5" r="1.5"/>
	<circle class="st0" cx="16.9" cy="6.5" r="1.5"/>
	<circle class="st0" cx="37.8" cy="2" r="1.5"/>
	<circle class="st0" cx="26.1" cy="2" r="1.5"/>
	<path class="st0" d="M43.7,31.2c-4.6,0-8.8,1.9-11.7,5.1c-2.9-3.1-7.1-5.1-11.7-5.1c-8.9,0-16.1,7.2-16.1,16.1
		c0,8.9,7.2,16.1,16.1,16.1c4.6,0,8.8-1.9,11.7-5.1c2.9,3.1,7.1,5.1,11.7,5.1c8.9,0,16.1-7.2,16.1-16.1
		C59.8,38.5,52.6,31.2,43.7,31.2z M20.3,61.5c-7.8,0-14.1-6.3-14.1-14.1c0-7.8,6.3-14.1,14.1-14.1c4.1,0,7.8,1.8,10.4,4.6
		c-2,2.7-3.1,6-3.1,9.5c0,3.6,1.2,6.9,3.1,9.5C28.1,59.7,24.4,61.5,20.3,61.5z M32,39.4c1.5,2.3,2.4,5,2.4,7.9
		c0,2.9-0.9,5.7-2.4,7.9c-1.5-2.3-2.4-5-2.4-7.9C29.6,44.4,30.5,41.7,32,39.4z M43.7,61.5c-4.1,0-7.8-1.8-10.4-4.6
		c2-2.7,3.1-6,3.1-9.5c0-3.6-1.2-6.9-3.1-9.5c2.6-2.8,6.3-4.6,10.4-4.6c7.8,0,14.1,6.3,14.1,14.1C57.8,55.2,51.5,61.5,43.7,61.5z"/>
	<path class="st0" d="M31.7,30.5c0.2,0.1,0.3,0.2,0.5,0.2c0.2,0,0.4-0.1,0.5-0.2c2.5-1.6,7.1-4.9,8.8-8.5c2.4-4.5,2.3-8.9-0.2-11.3
		C40,9.5,38.2,9,36.3,9.4c-1.6,0.3-3,1.3-4.1,2.8c-1.1-1.5-2.5-2.5-4.1-2.8C26.2,9,24.3,9.5,23,10.8c-2.5,2.4-2.6,6.8-0.2,11.3
		C24.6,25.7,29.1,28.9,31.7,30.5z M24.4,12.3c0.7-0.6,1.6-1,2.6-1c0.2,0,0.5,0,0.7,0.1c1.5,0.3,2.8,1.5,3.6,3.3
		c0.2,0.4,0.5,0.6,0.9,0.6c0.4,0,0.8-0.2,0.9-0.6c0.8-1.8,2.1-3,3.6-3.3c1.2-0.2,2.4,0.1,3.3,0.9c1.8,1.7,1.7,5.3-0.2,8.9
		c-1.5,3-5.5,5.9-7.6,7.3c-2.1-1.4-6.1-4.3-7.6-7.3C22.7,17.5,22.6,14,24.4,12.3z"/>
</g>
</svg>
