<svg xmlns="http://www.w3.org/2000/svg" viewBox="0 0 230.53 219.09"><defs><style>.cls-1{fill:#e4e6df}</style></defs><title>tab-nav</title><g id="Layer_2" data-name="Layer 2"><path class="cls-1" d="M186.94 192.12c-9.35 7.67-15.74 16.86-27.16 22-18.54 8.44-36.46 4.76-54.9-1.59-14.32-4.94-29.64-7.21-41.92-16.44-10.85-8.09-21.47-16.58-32.41-24.63-9.47-7-19.54-13-25.33-23.66-5.09-9.39-6-20.58-4.63-31.17s5-20.75 8.57-30.81c2.73-7.69 3.61-16.33 7.14-23.52 4.21-8.58 11.38-16.3 18.44-22.6C44 31.47 54.27 24.44 63.3 16.29 80.79.5 109.3-2.43 131.76 1.67a127.39 127.39 0 0 1 45.86 18.18c8.34 5.48 11.75 14.46 16.67 22.65 6.21 10.35 16 14.14 24.28 22.25 10.7 10.45 13.64 25.21 11.1 39.51-5.76 32.32-13.4 65.78-40.8 86.34-.66.5-1.3 1.01-1.93 1.52z" id="objects"/></g></svg>