<?xml version="1.0" encoding="utf-8"?>
<!-- Generator: Adobe Illustrator 21.1.0, SVG Export Plug-In . SVG Version: 6.00 Build 0)  -->
<svg version="1.1" id="Capa_1" xmlns="http://www.w3.org/2000/svg" xmlns:xlink="http://www.w3.org/1999/xlink" x="0px" y="0px"
	 viewBox="0 0 388 388" style="enable-background:new 0 0 388 388;" xml:space="preserve">
<style type="text/css">
	.st0{fill:#AE6835;}
</style>
<g>
	<g>
		<path class="st0" d="M361.6,88c-1.6-2.4-4.8-4-7.2-4c-65.6,5.6-117.6,56-129.6,67.2h-61.6c-12-12-64-61.6-129.6-67.2
			c-3.2,0-6.4,1.6-7.2,4C25.6,89.6,0,132.8,0,192.8v1.4c0-0.4,0,0.3,0,1c0,60,24.8,103.2,26.4,104.8c1.6,2.4,4,4,7.2,4h0.8
			c67.2-5.6,120-58.4,130.4-68h60c8.8,9.6,61.6,61.6,128.8,68h0.8c2.4,0,5.6-1.6,7.2-4c0.8-1.6,26.4-44.8,26.4-104.8v-1.6v-0.8
			C388,132.8,363.2,89.6,361.6,88z M152,185.6h-24c-4.8,0-8,3.2-8,8s3.2,8,8,8h24v23.2c-10.4,10.4-56.8,55.2-114.4,62.4
			C31.2,275.2,16,240,16,194.4c0,0,0,0,0-0.8c0-46.4,15.2-81.6,21.6-93.6c56.8,7.2,104,52,114.4,62.4V185.6z M220,219.2h-52.8v-52.8
			H220V219.2z M371.2,192.8c0,0.8,0,0.8,0,1.6v0.8c0,45.6-15.2,80.8-21.6,92.8c-56.8-7.2-104-52-114.4-62.4v-24h24c4.8,0,8-3.2,8-8
			s-3.2-8-8-8h-24v-23.2c10.4-10.4,57.6-55.2,114.4-62.4C356,112,372,147.2,371.2,192.8z"/>
	</g>
</g>
</svg>
