<?xml version="1.0" encoding="utf-8"?>
<!-- Generator: Adobe Illustrator 19.1.0, SVG Export Plug-In . SVG Version: 6.00 Build 0)  -->
<svg version="1.1" id="Layer_1" xmlns="http://www.w3.org/2000/svg" xmlns:xlink="http://www.w3.org/1999/xlink" x="0px" y="0px"
	 viewBox="0 0 64 64" enable-background="new 0 0 64 64" xml:space="preserve">
<g id="Wedding-rings">
	<circle cx="48.7761497" cy="26.1674595" r="1.5128281"/>
	<circle cx="15.1373501" cy="26.1674595" r="1.513118"/>
	<circle cx="51.2852478" cy="16.8635578" r="1.5130093"/>
	<circle cx="12.6274548" cy="16.8635082" r="1.5130687"/>
	<circle cx="47.0376511" cy="6.4892588" r="1.513118"/>
	<circle cx="16.8752499" cy="6.4892588" r="1.5130093"/>
	<circle cx="37.8013" cy="2.0130587" r="1.5130223"/>
	<circle cx="26.1115551" cy="2.0130587" r="1.5131427"/>
	<path d="M43.695549,31.2333584c-4.6040001,0-8.7530975,1.948801-11.6954002,5.0524006
		c-2.9420986-3.1035995-7.091198-5.0524006-11.6951981-5.0524006c-8.8959999,0-16.1338005,7.237402-16.1338005,16.1329021
		c0,8.8963966,7.2378001,16.1337967,16.1338005,16.1337967c4.6040001,0,8.7530994-1.9487991,11.6951981-5.0524979
		c2.9423027,3.1036987,7.0914001,5.0524979,11.6954002,5.0524979c8.8959999,0,16.1333008-7.2374001,16.1333008-16.1337967
		C59.8288498,38.4707603,52.5915489,31.2333584,43.695549,31.2333584z M20.3049507,61.5000572
		c-7.7933998,0-14.1338005-6.3409004-14.1338005-14.1337967c0-7.7930031,6.3404002-14.1329002,14.1338005-14.1329002
		c4.1178989,0,7.8184986,1.7811966,10.4040985,4.6005974c-1.9687996,2.6744003-3.1471996,5.9644012-3.1471996,9.5323029
		c0,3.5681,1.1784,6.8581963,3.1471004,9.5326996C28.1233597,59.7186584,24.4228497,61.5000572,20.3049507,61.5000572z
		 M32.0000496,39.441658c1.5376015,2.2616997,2.4382019,4.989502,2.4382019,7.9246025
		c0,2.9349976-0.9006004,5.6629982-2.4382019,7.9248962c-1.5375996-2.261898-2.4382-4.9898987-2.4382-7.9248962
		C29.5618496,44.43116,30.46245,41.7033577,32.0000496,39.441658z M43.695549,61.5000572
		c-4.1180992,0-7.8186989-1.7813988-10.4043007-4.6009979c1.9686012-2.6744003,3.1470032-5.9645996,3.1470032-9.5327988
		c0-3.5679016-1.1784019-6.8579025-3.1471024-9.5323029c2.5856018-2.8194008,6.2863007-4.6005974,10.4043999-4.6005974
		c7.7929993,0,14.1333008,6.3398972,14.1333008,14.1329002C57.8288498,55.1591568,51.4885483,61.5000572,43.695549,61.5000572z"/>
	<path d="M31.6609497,30.5458584c0.1636009,0.1035995,0.349102,0.1553001,0.535099,0.1553001
		c0.1861,0,0.3721008-0.0517006,0.535202-0.1553001c2.5458984-1.6131992,7.0820007-4.8593006,8.8442001-8.4500999
		c2.365799-4.4921989,2.2891006-8.9200001-0.1963005-11.2803001c-1.3330002-1.2665997-3.2246017-1.8056993-5.0595016-1.4462996
		c-1.6269989,0.3192997-3.0492897,1.3095999-4.1240997,2.8417997c-1.0746994-1.5332003-2.4984989-2.5225-4.1253986-2.8417997
		c-1.8334999-0.3584003-3.7266006,0.1807003-5.0585995,1.4462996c-2.4854012,2.3603001-2.5620003,6.7881012-0.2090015,11.2549
		C24.5784492,25.6875591,29.1150494,28.9335594,31.6609497,30.5458584z M24.3884506,12.2646589
		c0.6791992-0.6445007,1.6210995-1.0029001,2.5756989-1.0029001c0.2406998,0,0.4824009,0.0234003,0.7207012,0.0703001
		c1.4888,0.2919998,2.7670994,1.4696999,3.5995998,3.3154001c0.1616001,0.3583994,0.5185986,0.5888996,0.9115982,0.5888996
		c0.3936005,0,0.75-0.2305002,0.9117012-0.5888996c0.831501-1.8457003,2.108799-3.0234003,3.5970993-3.3154001
		c1.1856003-0.2315006,2.4468002,0.1259995,3.2974014,0.9326c1.7900009,1.7011995,1.7108994,5.2772989-0.2089996,8.9247999
		c-1.4813995,3.0165997-5.4717026,5.9258003-7.5972023,7.3213005c-2.1258984-1.3955002-6.1175995-4.3057003-7.6112976-7.3467007
		C22.6775494,17.5419579,22.5984497,13.9658585,24.3884506,12.2646589z"/>
</g>
<g>
</g>
<g>
</g>
<g>
</g>
<g>
</g>
<g>
</g>
<g>
</g>
<g>
</g>
<g>
</g>
<g>
</g>
<g>
</g>
<g>
</g>
<g>
</g>
<g>
</g>
<g>
</g>
<g>
</g>
</svg>
